<?xml version="1.0" encoding="utf-8"?>
<!-- Generator: Adobe Illustrator 23.0.1, SVG Export Plug-In . SVG Version: 6.00 Build 0)  -->
<svg version="1.1" id="Layer_1" xmlns="http://www.w3.org/2000/svg" xmlns:xlink="http://www.w3.org/1999/xlink" x="0px" y="0px"
	 viewBox="0 0 1366 294" style="enable-background:new 0 0 1366 294;" xml:space="preserve">
<style type="text/css">
	.st0{fill:none;stroke:url(#SVGID_1_);stroke-miterlimit:10;}
	.st1{fill:none;stroke:url(#SVGID_2_);stroke-miterlimit:10;}
	.st2{fill:none;stroke:url(#SVGID_3_);stroke-miterlimit:10;}
	.st3{fill:none;stroke:url(#SVGID_4_);stroke-miterlimit:10;}
	.st4{fill:none;stroke:url(#SVGID_5_);stroke-miterlimit:10;}
	.st5{fill:none;stroke:url(#SVGID_6_);stroke-miterlimit:10;}
	.st6{fill:none;stroke:url(#SVGID_7_);stroke-miterlimit:10;}
	.st7{fill:none;stroke:url(#SVGID_8_);stroke-miterlimit:10;}
	.st8{fill:none;stroke:url(#SVGID_9_);stroke-miterlimit:10;}
	.st9{fill:none;stroke:url(#SVGID_10_);stroke-miterlimit:10;}
	.st10{fill:none;stroke:url(#SVGID_11_);stroke-miterlimit:10;}
	.st11{fill:none;stroke:url(#SVGID_12_);stroke-miterlimit:10;}
	.st12{fill:none;stroke:url(#SVGID_13_);stroke-miterlimit:10;}
	.st13{fill:none;stroke:url(#SVGID_14_);stroke-miterlimit:10;}
	.st14{fill:none;stroke:url(#SVGID_15_);stroke-miterlimit:10;}
	.st15{fill:none;stroke:url(#SVGID_16_);stroke-miterlimit:10;}
	.st16{fill:none;stroke:url(#SVGID_17_);stroke-miterlimit:10;}
	.st17{fill:none;stroke:url(#SVGID_18_);stroke-miterlimit:10;}
	.st18{fill:none;stroke:url(#SVGID_19_);stroke-miterlimit:10;}
	.st19{fill:none;stroke:url(#SVGID_20_);stroke-miterlimit:10;}
	.st20{fill:none;stroke:url(#SVGID_21_);stroke-miterlimit:10;}
	.st21{fill:none;stroke:url(#SVGID_22_);stroke-miterlimit:10;}
	.st22{fill:none;stroke:url(#SVGID_23_);stroke-miterlimit:10;}
	.st23{fill:none;stroke:url(#SVGID_24_);stroke-miterlimit:10;}
	.st24{fill:none;stroke:url(#SVGID_25_);stroke-miterlimit:10;}
	.st25{fill:none;stroke:url(#SVGID_26_);stroke-miterlimit:10;}
	.st26{fill:none;stroke:url(#SVGID_27_);stroke-miterlimit:10;}
	.st27{fill:none;stroke:url(#SVGID_28_);stroke-miterlimit:10;}
	.st28{fill:none;stroke:url(#SVGID_29_);stroke-miterlimit:10;}
	.st29{fill:none;stroke:url(#SVGID_30_);stroke-miterlimit:10;}
	.st30{fill:none;stroke:url(#SVGID_31_);stroke-miterlimit:10;}
	.st31{fill:none;stroke:url(#SVGID_32_);stroke-miterlimit:10;}
	.st32{fill:none;stroke:url(#SVGID_33_);stroke-miterlimit:10;}
	.st33{fill:none;stroke:url(#SVGID_34_);stroke-miterlimit:10;}
	.st34{fill:none;stroke:url(#SVGID_35_);stroke-miterlimit:10;}
	.st35{fill:none;stroke:url(#SVGID_36_);stroke-miterlimit:10;}
	.st36{fill:none;stroke:url(#SVGID_37_);stroke-miterlimit:10;}
	.st37{fill:none;stroke:url(#SVGID_38_);stroke-miterlimit:10;}
	.st38{fill:none;stroke:url(#SVGID_39_);stroke-miterlimit:10;}
	.st39{fill:none;stroke:url(#SVGID_40_);stroke-miterlimit:10;}
	.st40{fill:none;stroke:url(#SVGID_41_);stroke-miterlimit:10;}
	.st41{fill:none;stroke:url(#SVGID_42_);stroke-miterlimit:10;}
	.st42{fill:none;stroke:url(#SVGID_43_);stroke-miterlimit:10;}
	.st43{fill:none;stroke:url(#SVGID_44_);stroke-miterlimit:10;}
	.st44{fill:none;stroke:url(#SVGID_45_);stroke-miterlimit:10;}
	.st45{fill:none;stroke:url(#SVGID_46_);stroke-miterlimit:10;}
	.st46{fill:none;stroke:url(#SVGID_47_);stroke-miterlimit:10;}
	.st47{fill:none;stroke:url(#SVGID_48_);stroke-miterlimit:10;}
	.st48{fill:none;stroke:url(#SVGID_49_);stroke-miterlimit:10;}
	.st49{fill:none;stroke:url(#SVGID_50_);stroke-miterlimit:10;}
	.st50{fill:none;stroke:url(#SVGID_51_);stroke-miterlimit:10;}
	.st51{fill:none;stroke:url(#SVGID_52_);stroke-miterlimit:10;}
	.st52{fill:none;stroke:url(#SVGID_53_);stroke-miterlimit:10;}
	.st53{fill:none;stroke:url(#SVGID_54_);stroke-miterlimit:10;}
	.st54{fill:none;stroke:url(#SVGID_55_);stroke-miterlimit:10;}
	.st55{fill:none;stroke:url(#SVGID_56_);stroke-miterlimit:10;}
	.st56{fill:none;stroke:url(#SVGID_57_);stroke-miterlimit:10;}
	.st57{fill:none;stroke:url(#SVGID_58_);stroke-miterlimit:10;}
	.st58{fill:none;stroke:url(#SVGID_59_);stroke-miterlimit:10;}
	.st59{fill:none;stroke:url(#SVGID_60_);stroke-miterlimit:10;}
	.st60{fill:url(#SVGID_61_);}
	.st61{fill:url(#SVGID_62_);}
	.st62{fill:url(#SVGID_63_);}
	.st63{fill:url(#SVGID_64_);}
	.st64{fill:url(#SVGID_65_);}
</style>
<g>
	<linearGradient id="SVGID_1_" gradientUnits="userSpaceOnUse" x1="287.8585" y1="200.159" x2="491.2139" y2="200.159">
		<stop  offset="0" style="stop-color:#FF85F4"/>
		<stop  offset="0.6066" style="stop-color:#2B3990"/>
		<stop  offset="1" style="stop-color:#00BAD8"/>
	</linearGradient>
	<polygon class="st0" points="363.6,128.51 342.22,156.69 363.6,191.12 372.76,180.43 386.65,191.12 403.29,180.43 409.4,191.12 
		435.36,159.82 410.93,128.51 465.9,136.15 455.21,201.8 490.33,243.03 386.65,272.04 288.78,241.5 326.95,201.8 311.68,139.2 	"/>
	<linearGradient id="SVGID_2_" gradientUnits="userSpaceOnUse" x1="291.8142" y1="202.0455" x2="487.1841" y2="202.0455">
		<stop  offset="0" style="stop-color:#FF85F4"/>
		<stop  offset="0.6066" style="stop-color:#2B3990"/>
		<stop  offset="1" style="stop-color:#00BAD8"/>
	</linearGradient>
	<polygon class="st1" points="364.32,133.34 344.27,160.02 364.76,192.64 373.52,182.52 386.79,192.64 402.67,182.52 408.53,192.64 
		433.35,162.99 410.44,133.34 462.84,140.57 453.76,203.61 486.31,242.95 386.65,271 292.72,241.44 328.24,203.49 314.52,143.79 	
		"/>
	<linearGradient id="SVGID_3_" gradientUnits="userSpaceOnUse" x1="295.7711" y1="203.932" x2="483.1532" y2="203.932">
		<stop  offset="0" style="stop-color:#FF85F4"/>
		<stop  offset="0.6066" style="stop-color:#2B3990"/>
		<stop  offset="1" style="stop-color:#00BAD8"/>
	</linearGradient>
	<polygon class="st2" points="365.04,138.16 346.33,163.36 365.93,194.17 374.29,184.61 386.92,194.17 402.04,184.61 407.65,194.17 
		431.35,166.16 409.96,138.16 459.79,144.99 452.32,205.42 482.29,242.87 386.65,269.95 296.66,241.37 329.52,205.18 317.36,148.37 
			"/>
	<linearGradient id="SVGID_4_" gradientUnits="userSpaceOnUse" x1="299.7292" y1="205.8183" x2="479.1209" y2="205.8183">
		<stop  offset="0" style="stop-color:#FF85F4"/>
		<stop  offset="0.6066" style="stop-color:#2B3990"/>
		<stop  offset="1" style="stop-color:#00BAD8"/>
	</linearGradient>
	<polygon class="st3" points="365.77,142.98 348.38,166.7 367.09,195.7 375.05,186.7 387.06,195.7 401.42,186.7 406.77,195.7 
		429.34,169.34 409.47,142.98 456.74,149.41 450.87,207.23 478.27,242.79 386.65,268.91 300.61,241.31 330.81,206.87 320.2,152.96 	
		"/>
	<linearGradient id="SVGID_5_" gradientUnits="userSpaceOnUse" x1="303.6889" y1="207.7046" x2="475.087" y2="207.7046">
		<stop  offset="0" style="stop-color:#FF85F4"/>
		<stop  offset="0.6066" style="stop-color:#2B3990"/>
		<stop  offset="1" style="stop-color:#00BAD8"/>
	</linearGradient>
	<polygon class="st4" points="366.49,147.8 350.44,170.04 368.26,197.22 375.82,188.79 387.19,197.22 400.79,188.79 405.9,197.22 
		427.34,172.51 408.99,147.8 453.68,153.83 449.42,209.04 474.26,242.71 386.65,267.86 304.55,241.24 332.09,208.55 323.04,157.54 	
		"/>
	<linearGradient id="SVGID_6_" gradientUnits="userSpaceOnUse" x1="307.6503" y1="209.5907" x2="471.0513" y2="209.5907">
		<stop  offset="0" style="stop-color:#FF85F4"/>
		<stop  offset="0.6066" style="stop-color:#2B3990"/>
		<stop  offset="1" style="stop-color:#00BAD8"/>
	</linearGradient>
	<polygon class="st5" points="367.21,152.62 352.49,173.38 369.43,198.75 376.58,190.88 387.33,198.75 400.17,190.88 405.02,198.75 
		425.33,175.69 408.5,152.62 450.63,158.25 447.98,210.84 470.24,242.63 386.65,266.82 308.49,241.18 333.38,210.24 325.88,162.13 	
		"/>
	<linearGradient id="SVGID_7_" gradientUnits="userSpaceOnUse" x1="311.6138" y1="211.4767" x2="467.0133" y2="211.4767">
		<stop  offset="0" style="stop-color:#FF85F4"/>
		<stop  offset="0.6066" style="stop-color:#2B3990"/>
		<stop  offset="1" style="stop-color:#00BAD8"/>
	</linearGradient>
	<polygon class="st6" points="367.94,157.44 354.55,176.72 370.59,200.28 377.35,192.96 387.46,200.28 399.54,192.96 404.14,200.28 
		423.33,178.86 408.02,157.44 447.57,162.67 446.53,212.65 466.22,242.55 386.65,265.77 312.44,241.11 334.67,211.93 328.72,166.71 
			"/>
	<linearGradient id="SVGID_8_" gradientUnits="userSpaceOnUse" x1="315.5797" y1="213.3627" x2="462.9728" y2="213.3627">
		<stop  offset="0" style="stop-color:#FF85F4"/>
		<stop  offset="0.6066" style="stop-color:#2B3990"/>
		<stop  offset="1" style="stop-color:#00BAD8"/>
	</linearGradient>
	<polygon class="st7" points="368.66,162.27 356.6,180.06 371.76,201.8 378.11,195.05 387.6,201.8 398.92,195.05 403.27,201.8 
		421.32,182.04 407.53,162.27 444.52,167.09 445.08,214.46 462.21,242.47 386.65,264.73 316.38,241.05 335.95,213.62 331.56,171.3 	
		"/>
	<linearGradient id="SVGID_9_" gradientUnits="userSpaceOnUse" x1="319.5484" y1="215.2487" x2="458.9293" y2="215.2487">
		<stop  offset="0" style="stop-color:#FF85F4"/>
		<stop  offset="0.6066" style="stop-color:#2B3990"/>
		<stop  offset="1" style="stop-color:#00BAD8"/>
	</linearGradient>
	<polygon class="st8" points="369.38,167.09 358.66,183.4 372.92,203.33 378.88,197.14 387.73,203.33 398.29,197.14 402.39,203.33 
		419.32,185.21 407.04,167.09 441.47,171.51 443.64,216.27 458.19,242.39 386.65,263.68 320.32,240.98 337.24,215.3 334.4,175.88 	
		"/>
	<linearGradient id="SVGID_10_" gradientUnits="userSpaceOnUse" x1="323.5204" y1="217.1349" x2="454.8821" y2="217.1349">
		<stop  offset="0" style="stop-color:#FF85F4"/>
		<stop  offset="0.6066" style="stop-color:#2B3990"/>
		<stop  offset="1" style="stop-color:#00BAD8"/>
	</linearGradient>
	<polygon class="st9" points="370.11,171.91 360.71,186.74 374.09,204.86 379.64,199.23 387.87,204.86 397.66,199.23 401.51,204.86 
		417.31,188.38 406.56,171.91 438.41,175.93 442.19,218.08 454.17,242.31 386.65,262.64 324.26,240.92 338.52,216.99 337.24,180.47 
			"/>
	<linearGradient id="SVGID_11_" gradientUnits="userSpaceOnUse" x1="327.4964" y1="219.0213" x2="450.8307" y2="219.0213">
		<stop  offset="0" style="stop-color:#FF85F4"/>
		<stop  offset="0.6066" style="stop-color:#2B3990"/>
		<stop  offset="1" style="stop-color:#00BAD8"/>
	</linearGradient>
	<polygon class="st10" points="370.83,176.73 362.76,190.08 375.26,206.38 380.41,201.32 388,206.38 397.04,201.32 400.64,206.38 
		415.31,191.56 406.07,176.73 435.36,180.35 440.74,219.89 450.15,242.23 386.65,261.59 328.21,240.85 339.81,218.68 340.08,185.06 
			"/>
	<linearGradient id="SVGID_12_" gradientUnits="userSpaceOnUse" x1="331.4771" y1="220.9084" x2="446.774" y2="220.9084">
		<stop  offset="0" style="stop-color:#FF85F4"/>
		<stop  offset="0.6066" style="stop-color:#2B3990"/>
		<stop  offset="1" style="stop-color:#00BAD8"/>
	</linearGradient>
	<polygon class="st11" points="371.55,181.55 364.82,193.41 376.42,207.91 381.17,203.41 388.14,207.91 396.41,203.41 
		399.76,207.91 413.3,194.73 405.59,181.55 432.31,184.77 439.3,221.69 446.14,242.15 386.65,260.55 332.15,240.79 341.09,220.37 
		342.92,189.64 	"/>
	<linearGradient id="SVGID_13_" gradientUnits="userSpaceOnUse" x1="335.4633" y1="222.7966" x2="442.7113" y2="222.7966">
		<stop  offset="0" style="stop-color:#FF85F4"/>
		<stop  offset="0.6066" style="stop-color:#2B3990"/>
		<stop  offset="1" style="stop-color:#00BAD8"/>
	</linearGradient>
	<polygon class="st12" points="372.28,186.37 366.87,196.75 377.59,209.44 381.94,205.5 388.27,209.44 395.79,205.5 398.88,209.44 
		411.3,197.91 405.1,186.37 429.25,189.19 437.85,223.5 442.12,242.07 386.65,259.5 336.09,240.72 342.38,222.06 345.76,194.23 	"/>
	<linearGradient id="SVGID_14_" gradientUnits="userSpaceOnUse" x1="339.4558" y1="224.687" x2="438.6418" y2="224.687">
		<stop  offset="0" style="stop-color:#FF85F4"/>
		<stop  offset="0.6066" style="stop-color:#2B3990"/>
		<stop  offset="1" style="stop-color:#00BAD8"/>
	</linearGradient>
	<polygon class="st13" points="373,191.2 368.93,200.09 378.76,210.97 382.7,207.59 388.41,210.97 395.16,207.59 398.01,210.97 
		409.29,201.08 404.62,191.2 426.2,193.61 436.4,225.31 438.1,241.99 386.65,258.46 340.03,240.65 343.67,223.74 348.6,198.81 	"/>
	<linearGradient id="SVGID_15_" gradientUnits="userSpaceOnUse" x1="343.455" y1="226.5813" x2="435.463" y2="226.5813">
		<stop  offset="0" style="stop-color:#FF85F4"/>
		<stop  offset="0.6066" style="stop-color:#2B3990"/>
		<stop  offset="1" style="stop-color:#00BAD8"/>
	</linearGradient>
	<polygon class="st14" points="373.72,196.02 370.98,203.43 379.92,212.49 383.47,209.68 388.54,212.49 394.54,209.68 
		397.13,212.49 407.29,204.26 404.13,196.02 423.14,198.03 434.96,227.12 434.09,241.91 386.65,257.41 343.98,240.59 344.95,225.43 
		351.44,203.4 	"/>
	<linearGradient id="SVGID_16_" gradientUnits="userSpaceOnUse" x1="345.7253" y1="228.4825" x2="434.043" y2="228.4825">
		<stop  offset="0" style="stop-color:#FF85F4"/>
		<stop  offset="0.6066" style="stop-color:#2B3990"/>
		<stop  offset="1" style="stop-color:#00BAD8"/>
	</linearGradient>
	<polygon class="st15" points="374.44,200.84 373.04,206.77 381.09,214.02 384.23,211.77 388.68,214.02 393.91,211.77 
		396.25,214.02 405.28,207.43 403.64,200.84 420.09,202.45 433.51,228.93 430.07,241.83 386.65,256.37 347.92,240.52 346.24,227.12 
		354.28,207.98 	"/>
	<linearGradient id="SVGID_17_" gradientUnits="userSpaceOnUse" x1="346.972" y1="230.3953" x2="432.6436" y2="230.3953">
		<stop  offset="0" style="stop-color:#FF85F4"/>
		<stop  offset="0.6066" style="stop-color:#2B3990"/>
		<stop  offset="1" style="stop-color:#00BAD8"/>
	</linearGradient>
	<polygon class="st16" points="375.17,205.66 375.09,210.11 382.25,215.55 385,213.86 388.81,215.55 393.28,213.86 395.37,215.55 
		403.28,210.6 403.16,205.66 417.04,206.87 432.06,230.73 426.05,241.75 386.65,255.33 351.86,240.46 347.52,228.81 357.12,212.57 	
		"/>
	<linearGradient id="SVGID_18_" gradientUnits="userSpaceOnUse" x1="348.1794" y1="232.3243" x2="431.2759" y2="232.3243">
		<stop  offset="0" style="stop-color:#FF85F4"/>
		<stop  offset="0.6066" style="stop-color:#2B3990"/>
		<stop  offset="1" style="stop-color:#00BAD8"/>
	</linearGradient>
	<polygon class="st17" points="375.89,210.48 377.14,213.45 383.42,217.07 385.76,215.95 388.95,217.07 392.66,215.95 394.5,217.07 
		401.27,213.78 402.67,210.48 413.98,211.29 430.62,232.54 422.03,241.68 386.65,254.28 355.81,240.39 348.81,230.49 359.96,217.15 
			"/>
	<linearGradient id="SVGID_19_" gradientUnits="userSpaceOnUse" x1="349.3143" y1="234.2603" x2="429.9555" y2="234.2603">
		<stop  offset="0" style="stop-color:#FF85F4"/>
		<stop  offset="0.6066" style="stop-color:#2B3990"/>
		<stop  offset="1" style="stop-color:#00BAD8"/>
	</linearGradient>
	<polygon class="st18" points="376.61,215.3 379.2,216.79 384.59,218.6 386.53,218.04 389.08,218.6 392.03,218.04 393.62,218.6 
		399.27,216.95 402.19,215.3 410.93,215.71 429.17,234.35 418.02,241.6 386.65,253.24 359.75,240.33 350.1,232.18 362.8,221.74 	"/>
	<linearGradient id="SVGID_20_" gradientUnits="userSpaceOnUse" x1="350.3046" y1="236.1829" x2="428.7092" y2="236.1829">
		<stop  offset="0" style="stop-color:#FF85F4"/>
		<stop  offset="0.6066" style="stop-color:#2B3990"/>
		<stop  offset="1" style="stop-color:#00BAD8"/>
	</linearGradient>
	<polygon class="st19" points="377.34,220.13 351.38,233.87 386.65,252.19 427.72,236.16 407.88,220.13 	"/>
</g>
<g>
	<linearGradient id="SVGID_21_" gradientUnits="userSpaceOnUse" x1="454.5781" y1="120.2465" x2="752.954" y2="120.2465">
		<stop  offset="0" style="stop-color:#FF85F4"/>
		<stop  offset="0.6066" style="stop-color:#2B3990"/>
		<stop  offset="1" style="stop-color:#00BAD8"/>
	</linearGradient>
	<polygon class="st20" points="465.9,136.15 538.42,87.29 610.95,38.43 751.42,38.43 675.08,94.16 598.73,149.89 455.21,201.8 	"/>
	<linearGradient id="SVGID_22_" gradientUnits="userSpaceOnUse" x1="456.8085" y1="119.766" x2="748.5448" y2="119.766">
		<stop  offset="0" style="stop-color:#FF85F4"/>
		<stop  offset="0.6066" style="stop-color:#2B3990"/>
		<stop  offset="1" style="stop-color:#00BAD8"/>
	</linearGradient>
	<polygon class="st21" points="747,39.83 679.4,88.76 672.21,93.96 611.8,137.68 597.42,148.09 535.8,170.69 457.46,199.43 
		469.07,136.18 539.71,88.53 610.38,40.85 672.92,39.83 	"/>
	<linearGradient id="SVGID_23_" gradientUnits="userSpaceOnUse" x1="459.0366" y1="119.2861" x2="744.1363" y2="119.2861">
		<stop  offset="0" style="stop-color:#FF85F4"/>
		<stop  offset="0.6066" style="stop-color:#2B3990"/>
		<stop  offset="1" style="stop-color:#00BAD8"/>
	</linearGradient>
	<polygon class="st22" points="742.58,41.23 676.38,88.72 669.34,93.76 610.19,136.19 596.1,146.3 536.05,168.64 459.71,197.05 
		472.25,136.21 540.99,89.77 609.82,43.28 670.41,41.23 	"/>
	<linearGradient id="SVGID_24_" gradientUnits="userSpaceOnUse" x1="461.2618" y1="118.807" x2="739.7285" y2="118.807">
		<stop  offset="0" style="stop-color:#FF85F4"/>
		<stop  offset="0.6066" style="stop-color:#2B3990"/>
		<stop  offset="1" style="stop-color:#00BAD8"/>
	</linearGradient>
	<polygon class="st23" points="738.16,42.64 673.36,88.67 666.47,93.57 608.57,134.7 594.78,144.5 536.3,166.59 461.96,194.68 
		475.42,136.24 542.28,91.01 609.25,45.71 667.9,42.64 	"/>
	<linearGradient id="SVGID_25_" gradientUnits="userSpaceOnUse" x1="463.4836" y1="118.3289" x2="735.3215" y2="118.3289">
		<stop  offset="0" style="stop-color:#FF85F4"/>
		<stop  offset="0.6066" style="stop-color:#2B3990"/>
		<stop  offset="1" style="stop-color:#00BAD8"/>
	</linearGradient>
	<polygon class="st24" points="733.74,44.04 670.34,88.63 663.61,93.37 606.95,133.21 593.46,142.7 536.56,164.54 464.21,192.31 
		478.6,136.27 543.57,92.26 608.69,48.13 665.39,44.04 	"/>
	<linearGradient id="SVGID_26_" gradientUnits="userSpaceOnUse" x1="465.7013" y1="117.8519" x2="730.9154" y2="117.8519">
		<stop  offset="0" style="stop-color:#FF85F4"/>
		<stop  offset="0.6066" style="stop-color:#2B3990"/>
		<stop  offset="1" style="stop-color:#00BAD8"/>
	</linearGradient>
	<polygon class="st25" points="729.32,45.44 667.33,88.58 660.74,93.17 605.34,131.72 592.14,140.91 536.81,162.49 466.46,189.93 
		481.77,136.3 544.85,93.5 608.12,50.56 662.88,45.44 	"/>
	<linearGradient id="SVGID_27_" gradientUnits="userSpaceOnUse" x1="467.914" y1="117.3762" x2="726.5103" y2="117.3762">
		<stop  offset="0" style="stop-color:#FF85F4"/>
		<stop  offset="0.6066" style="stop-color:#2B3990"/>
		<stop  offset="1" style="stop-color:#00BAD8"/>
	</linearGradient>
	<polygon class="st26" points="724.9,46.84 664.31,88.54 657.87,92.97 603.72,130.24 590.82,139.11 537.06,160.44 468.71,187.56 
		484.95,136.33 546.14,94.74 607.56,52.98 660.37,46.84 	"/>
	<linearGradient id="SVGID_28_" gradientUnits="userSpaceOnUse" x1="470.1205" y1="116.9023" x2="722.1063" y2="116.9023">
		<stop  offset="0" style="stop-color:#FF85F4"/>
		<stop  offset="0.6066" style="stop-color:#2B3990"/>
		<stop  offset="1" style="stop-color:#00BAD8"/>
	</linearGradient>
	<polygon class="st27" points="720.48,48.25 661.29,88.5 655,92.77 602.1,128.75 589.51,137.31 537.31,158.39 470.96,185.18 
		488.13,136.36 547.42,95.98 606.99,55.41 657.86,48.25 	"/>
	<linearGradient id="SVGID_29_" gradientUnits="userSpaceOnUse" x1="472.3192" y1="116.4306" x2="717.7034" y2="116.4306">
		<stop  offset="0" style="stop-color:#FF85F4"/>
		<stop  offset="0.6066" style="stop-color:#2B3990"/>
		<stop  offset="1" style="stop-color:#00BAD8"/>
	</linearGradient>
	<polygon class="st28" points="716.06,49.65 658.27,88.45 652.14,92.58 600.49,127.26 588.19,135.52 537.56,156.34 473.21,182.81 
		491.3,136.39 548.71,97.22 606.42,57.83 655.35,49.65 	"/>
	<linearGradient id="SVGID_30_" gradientUnits="userSpaceOnUse" x1="474.5081" y1="115.9615" x2="713.302" y2="115.9615">
		<stop  offset="0" style="stop-color:#FF85F4"/>
		<stop  offset="0.6066" style="stop-color:#2B3990"/>
		<stop  offset="1" style="stop-color:#00BAD8"/>
	</linearGradient>
	<polygon class="st29" points="711.64,51.05 655.25,88.41 649.27,92.38 598.87,125.77 586.87,133.72 537.81,154.29 475.46,180.43 
		494.48,136.42 549.99,98.46 605.86,60.26 652.84,51.05 	"/>
	<linearGradient id="SVGID_31_" gradientUnits="userSpaceOnUse" x1="476.6841" y1="115.4961" x2="708.902" y2="115.4961">
		<stop  offset="0" style="stop-color:#FF85F4"/>
		<stop  offset="0.6066" style="stop-color:#2B3990"/>
		<stop  offset="1" style="stop-color:#00BAD8"/>
	</linearGradient>
	<polygon class="st30" points="707.22,52.45 652.24,88.37 646.4,92.18 597.25,124.28 585.55,131.92 538.07,152.24 477.71,178.06 
		497.65,136.45 551.28,99.7 605.29,62.68 650.33,52.45 	"/>
	<linearGradient id="SVGID_32_" gradientUnits="userSpaceOnUse" x1="478.843" y1="115.0354" x2="704.5038" y2="115.0354">
		<stop  offset="0" style="stop-color:#FF85F4"/>
		<stop  offset="0.6066" style="stop-color:#2B3990"/>
		<stop  offset="1" style="stop-color:#00BAD8"/>
	</linearGradient>
	<polygon class="st31" points="702.8,53.85 649.22,88.32 643.53,91.98 595.64,122.79 584.23,130.13 538.32,150.19 479.96,175.68 
		500.83,136.48 552.57,100.95 604.73,65.11 647.82,53.85 	"/>
	<linearGradient id="SVGID_33_" gradientUnits="userSpaceOnUse" x1="480.9785" y1="114.5812" x2="700.1075" y2="114.5812">
		<stop  offset="0" style="stop-color:#FF85F4"/>
		<stop  offset="0.6066" style="stop-color:#2B3990"/>
		<stop  offset="1" style="stop-color:#00BAD8"/>
	</linearGradient>
	<polygon class="st32" points="698.38,55.26 646.2,88.28 640.67,91.78 594.02,121.3 582.91,128.33 538.57,148.14 482.21,173.31 
		504,136.51 553.85,102.19 604.16,67.54 645.31,55.26 	"/>
	<linearGradient id="SVGID_34_" gradientUnits="userSpaceOnUse" x1="483.081" y1="114.1363" x2="695.7134" y2="114.1363">
		<stop  offset="0" style="stop-color:#FF85F4"/>
		<stop  offset="0.6066" style="stop-color:#2B3990"/>
		<stop  offset="1" style="stop-color:#00BAD8"/>
	</linearGradient>
	<polygon class="st33" points="693.96,56.66 643.18,88.24 637.8,91.59 592.4,119.81 581.6,126.53 538.82,146.09 484.46,170.93 
		507.18,136.54 555.14,103.43 603.6,69.96 642.8,56.66 	"/>
	<linearGradient id="SVGID_35_" gradientUnits="userSpaceOnUse" x1="485.1345" y1="113.7051" x2="691.3219" y2="113.7051">
		<stop  offset="0" style="stop-color:#FF85F4"/>
		<stop  offset="0.6066" style="stop-color:#2B3990"/>
		<stop  offset="1" style="stop-color:#00BAD8"/>
	</linearGradient>
	<polygon class="st34" points="689.54,58.06 640.16,88.19 634.93,91.39 590.79,118.32 580.28,124.74 539.07,144.04 486.71,168.56 
		510.36,136.58 556.42,104.67 603.03,72.39 640.29,58.06 	"/>
	<linearGradient id="SVGID_36_" gradientUnits="userSpaceOnUse" x1="487.1114" y1="113.2954" x2="686.9333" y2="113.2954">
		<stop  offset="0" style="stop-color:#FF85F4"/>
		<stop  offset="0.6066" style="stop-color:#2B3990"/>
		<stop  offset="1" style="stop-color:#00BAD8"/>
	</linearGradient>
	<polygon class="st35" points="685.12,59.46 637.15,88.15 632.06,91.19 589.17,116.83 578.96,122.94 539.32,141.98 488.96,166.18 
		513.53,136.61 557.71,105.91 602.46,74.81 637.78,59.46 	"/>
	<linearGradient id="SVGID_37_" gradientUnits="userSpaceOnUse" x1="488.9584" y1="112.9223" x2="682.5482" y2="112.9223">
		<stop  offset="0" style="stop-color:#FF85F4"/>
		<stop  offset="0.6066" style="stop-color:#2B3990"/>
		<stop  offset="1" style="stop-color:#00BAD8"/>
	</linearGradient>
	<polygon class="st36" points="680.7,60.87 634.13,88.11 629.2,90.99 587.55,115.35 577.64,121.14 539.58,139.93 491.21,163.81 
		516.71,136.64 559,107.15 601.9,77.24 635.27,60.87 	"/>
	<linearGradient id="SVGID_38_" gradientUnits="userSpaceOnUse" x1="490.5588" y1="112.6188" x2="678.167" y2="112.6188">
		<stop  offset="0" style="stop-color:#FF85F4"/>
		<stop  offset="0.6066" style="stop-color:#2B3990"/>
		<stop  offset="1" style="stop-color:#00BAD8"/>
	</linearGradient>
	<polygon class="st37" points="676.28,62.27 631.11,88.06 626.33,90.79 585.94,113.86 576.32,119.35 539.83,137.88 493.46,161.43 
		519.88,136.67 560.28,108.4 601.33,79.66 632.76,62.27 	"/>
	<linearGradient id="SVGID_39_" gradientUnits="userSpaceOnUse" x1="491.5971" y1="112.4742" x2="673.7905" y2="112.4742">
		<stop  offset="0" style="stop-color:#FF85F4"/>
		<stop  offset="0.6066" style="stop-color:#2B3990"/>
		<stop  offset="1" style="stop-color:#00BAD8"/>
	</linearGradient>
	<polygon class="st38" points="671.86,63.67 628.09,88.02 623.46,90.6 584.32,112.37 575,117.55 540.08,135.83 495.71,159.06 
		523.06,136.7 561.57,109.64 600.77,82.09 630.25,63.67 	"/>
	<linearGradient id="SVGID_40_" gradientUnits="userSpaceOnUse" x1="497.6723" y1="110.8491" x2="669.4197" y2="110.8491">
		<stop  offset="0" style="stop-color:#FF85F4"/>
		<stop  offset="0.6066" style="stop-color:#2B3990"/>
		<stop  offset="1" style="stop-color:#00BAD8"/>
	</linearGradient>
	<polygon class="st39" points="497.96,156.69 562.85,110.88 627.74,65.07 667.44,65.07 625.07,87.98 582.7,110.88 540.33,133.78 	
		"/>
</g>
<g>
	<linearGradient id="SVGID_41_" gradientUnits="userSpaceOnUse" x1="24.7077" y1="120.2469" x2="327.6514" y2="120.2469">
		<stop  offset="0" style="stop-color:#FF85F4"/>
		<stop  offset="0.6066" style="stop-color:#2B3990"/>
		<stop  offset="1" style="stop-color:#00BAD8"/>
	</linearGradient>
	<polygon class="st40" points="311.68,139.2 326.95,201.8 246.79,175.08 166.63,148.36 96.39,93.4 26.16,38.43 169.68,38.43 
		240.68,88.82 	"/>
	<linearGradient id="SVGID_42_" gradientUnits="userSpaceOnUse" x1="28.6313" y1="119.7691" x2="325.2763" y2="119.7691">
		<stop  offset="0" style="stop-color:#FF85F4"/>
		<stop  offset="0.6066" style="stop-color:#2B3990"/>
		<stop  offset="1" style="stop-color:#00BAD8"/>
	</linearGradient>
	<polygon class="st41" points="30.1,39.83 170.05,39.83 238.68,88.77 307.32,137.71 324.54,199.43 246.23,172.91 168,146.43 
		165.65,144.62 99.05,93.13 	"/>
	<linearGradient id="SVGID_43_" gradientUnits="userSpaceOnUse" x1="32.5538" y1="119.2921" x2="322.9044" y2="119.2921">
		<stop  offset="0" style="stop-color:#FF85F4"/>
		<stop  offset="0.6066" style="stop-color:#2B3990"/>
		<stop  offset="1" style="stop-color:#00BAD8"/>
	</linearGradient>
	<polygon class="st42" points="34.03,41.23 170.41,41.23 236.69,88.73 302.96,136.22 322.13,197.05 245.67,170.74 169.37,144.5 
		167.06,142.74 101.7,92.87 	"/>
	<linearGradient id="SVGID_44_" gradientUnits="userSpaceOnUse" x1="36.4754" y1="118.8161" x2="320.5362" y2="118.8161">
		<stop  offset="0" style="stop-color:#FF85F4"/>
		<stop  offset="0.6066" style="stop-color:#2B3990"/>
		<stop  offset="1" style="stop-color:#00BAD8"/>
	</linearGradient>
	<polygon class="st43" points="37.97,42.64 170.77,42.64 234.69,88.68 298.6,134.73 319.72,194.68 245.1,168.56 170.74,142.57 
		168.48,140.87 104.36,92.61 	"/>
	<linearGradient id="SVGID_45_" gradientUnits="userSpaceOnUse" x1="40.3958" y1="118.3412" x2="318.1721" y2="118.3412">
		<stop  offset="0" style="stop-color:#FF85F4"/>
		<stop  offset="0.6066" style="stop-color:#2B3990"/>
		<stop  offset="1" style="stop-color:#00BAD8"/>
	</linearGradient>
	<polygon class="st44" points="41.91,44.04 171.13,44.04 232.69,88.64 294.24,133.24 317.31,192.31 244.54,166.39 172.1,140.64 
		169.89,139 107.01,92.34 	"/>
	<linearGradient id="SVGID_46_" gradientUnits="userSpaceOnUse" x1="44.3149" y1="117.8677" x2="315.8126" y2="117.8677">
		<stop  offset="0" style="stop-color:#FF85F4"/>
		<stop  offset="0.6066" style="stop-color:#2B3990"/>
		<stop  offset="1" style="stop-color:#00BAD8"/>
	</linearGradient>
	<polygon class="st45" points="45.85,45.44 171.49,45.44 230.69,88.59 289.88,131.75 314.9,189.93 243.98,164.22 173.47,138.71 
		171.3,137.12 109.67,92.08 	"/>
	<linearGradient id="SVGID_47_" gradientUnits="userSpaceOnUse" x1="48.2325" y1="117.3957" x2="313.4586" y2="117.3957">
		<stop  offset="0" style="stop-color:#FF85F4"/>
		<stop  offset="0.6066" style="stop-color:#2B3990"/>
		<stop  offset="1" style="stop-color:#00BAD8"/>
	</linearGradient>
	<polygon class="st46" points="49.78,46.84 171.85,46.84 228.69,88.55 285.52,130.26 312.49,187.56 243.42,162.04 174.84,136.78 
		172.71,135.25 112.32,91.81 	"/>
	<linearGradient id="SVGID_48_" gradientUnits="userSpaceOnUse" x1="52.1486" y1="116.9255" x2="311.1108" y2="116.9255">
		<stop  offset="0" style="stop-color:#FF85F4"/>
		<stop  offset="0.6066" style="stop-color:#2B3990"/>
		<stop  offset="1" style="stop-color:#00BAD8"/>
	</linearGradient>
	<polygon class="st47" points="53.72,48.25 172.22,48.25 226.69,88.51 281.17,128.77 310.08,185.18 242.85,159.87 176.21,134.85 
		174.12,133.37 114.97,91.55 	"/>
	<linearGradient id="SVGID_49_" gradientUnits="userSpaceOnUse" x1="56.0629" y1="116.4574" x2="308.7702" y2="116.4574">
		<stop  offset="0" style="stop-color:#FF85F4"/>
		<stop  offset="0.6066" style="stop-color:#2B3990"/>
		<stop  offset="1" style="stop-color:#00BAD8"/>
	</linearGradient>
	<polygon class="st48" points="57.66,49.65 172.58,49.65 224.69,88.46 276.81,127.28 307.66,182.81 242.29,157.69 177.58,132.92 
		175.53,131.5 117.63,91.29 	"/>
	<linearGradient id="SVGID_50_" gradientUnits="userSpaceOnUse" x1="59.9751" y1="115.9918" x2="306.4381" y2="115.9918">
		<stop  offset="0" style="stop-color:#FF85F4"/>
		<stop  offset="0.6066" style="stop-color:#2B3990"/>
		<stop  offset="1" style="stop-color:#00BAD8"/>
	</linearGradient>
	<polygon class="st49" points="61.6,51.05 172.94,51.05 222.69,88.42 272.45,125.79 305.25,180.43 241.73,155.52 178.95,130.99 
		176.94,129.62 120.28,91.02 	"/>
	<linearGradient id="SVGID_51_" gradientUnits="userSpaceOnUse" x1="63.8851" y1="115.5293" x2="304.1162" y2="115.5293">
		<stop  offset="0" style="stop-color:#FF85F4"/>
		<stop  offset="0.6066" style="stop-color:#2B3990"/>
		<stop  offset="1" style="stop-color:#00BAD8"/>
	</linearGradient>
	<polygon class="st50" points="65.54,52.45 173.3,52.45 220.69,88.37 268.09,124.3 302.84,178.06 241.17,153.35 180.32,129.06 
		178.36,127.75 122.94,90.76 	"/>
	<linearGradient id="SVGID_52_" gradientUnits="userSpaceOnUse" x1="67.7925" y1="115.0704" x2="301.8065" y2="115.0704">
		<stop  offset="0" style="stop-color:#FF85F4"/>
		<stop  offset="0.6066" style="stop-color:#2B3990"/>
		<stop  offset="1" style="stop-color:#00BAD8"/>
	</linearGradient>
	<polygon class="st51" points="69.47,53.85 173.66,53.85 218.69,88.33 263.73,122.8 300.43,175.68 240.6,151.17 181.69,127.13 
		179.77,125.87 125.59,90.5 	"/>
	<linearGradient id="SVGID_53_" gradientUnits="userSpaceOnUse" x1="71.6968" y1="114.6161" x2="299.5118" y2="114.6161">
		<stop  offset="0" style="stop-color:#FF85F4"/>
		<stop  offset="0.6066" style="stop-color:#2B3990"/>
		<stop  offset="1" style="stop-color:#00BAD8"/>
	</linearGradient>
	<polygon class="st52" points="73.41,55.26 174.02,55.26 216.7,88.29 259.37,121.31 298.02,173.31 240.04,149 183.05,125.2 
		181.18,124 128.24,90.23 	"/>
	<linearGradient id="SVGID_54_" gradientUnits="userSpaceOnUse" x1="75.5977" y1="114.1674" x2="297.2357" y2="114.1674">
		<stop  offset="0" style="stop-color:#FF85F4"/>
		<stop  offset="0.6066" style="stop-color:#2B3990"/>
		<stop  offset="1" style="stop-color:#00BAD8"/>
	</linearGradient>
	<polygon class="st53" points="77.35,56.66 174.38,56.66 214.7,88.24 255.01,119.82 295.61,170.93 239.48,146.82 184.42,123.26 
		182.59,122.13 130.9,89.97 	"/>
	<linearGradient id="SVGID_55_" gradientUnits="userSpaceOnUse" x1="79.4946" y1="113.726" x2="294.9831" y2="113.726">
		<stop  offset="0" style="stop-color:#FF85F4"/>
		<stop  offset="0.6066" style="stop-color:#2B3990"/>
		<stop  offset="1" style="stop-color:#00BAD8"/>
	</linearGradient>
	<polygon class="st54" points="81.29,58.06 174.75,58.06 212.7,88.2 250.65,118.33 293.2,168.56 238.92,144.65 185.79,121.33 
		184,120.25 133.55,89.7 	"/>
	<linearGradient id="SVGID_56_" gradientUnits="userSpaceOnUse" x1="83.3868" y1="113.2941" x2="292.761" y2="113.2941">
		<stop  offset="0" style="stop-color:#FF85F4"/>
		<stop  offset="0.6066" style="stop-color:#2B3990"/>
		<stop  offset="1" style="stop-color:#00BAD8"/>
	</linearGradient>
	<polygon class="st55" points="85.22,59.46 175.11,59.46 210.7,88.15 246.29,116.84 290.79,166.18 238.35,142.48 187.16,119.4 
		185.41,118.38 136.21,89.44 	"/>
	<linearGradient id="SVGID_57_" gradientUnits="userSpaceOnUse" x1="87.2735" y1="112.8749" x2="290.5794" y2="112.8749">
		<stop  offset="0" style="stop-color:#FF85F4"/>
		<stop  offset="0.6066" style="stop-color:#2B3990"/>
		<stop  offset="1" style="stop-color:#00BAD8"/>
	</linearGradient>
	<polygon class="st56" points="89.16,60.87 175.47,60.87 208.7,88.11 241.93,115.35 288.38,163.81 237.79,140.3 188.53,117.47 
		186.83,116.5 138.86,89.18 	"/>
	<linearGradient id="SVGID_58_" gradientUnits="userSpaceOnUse" x1="91.1535" y1="112.4731" x2="288.4535" y2="112.4731">
		<stop  offset="0" style="stop-color:#FF85F4"/>
		<stop  offset="0.6066" style="stop-color:#2B3990"/>
		<stop  offset="1" style="stop-color:#00BAD8"/>
	</linearGradient>
	<polygon class="st57" points="93.1,62.27 175.83,62.27 206.7,88.06 237.57,113.86 285.97,161.43 237.23,138.13 189.9,115.54 
		188.24,114.63 141.52,88.91 	"/>
	<linearGradient id="SVGID_59_" gradientUnits="userSpaceOnUse" x1="95.0256" y1="112.0965" x2="286.4072" y2="112.0965">
		<stop  offset="0" style="stop-color:#FF85F4"/>
		<stop  offset="0.6066" style="stop-color:#2B3990"/>
		<stop  offset="1" style="stop-color:#00BAD8"/>
	</linearGradient>
	<polygon class="st58" points="97.04,63.67 176.19,63.67 204.7,88.02 233.21,112.37 283.56,159.06 236.67,135.96 191.27,113.61 
		189.65,112.75 144.17,88.65 	"/>
	<linearGradient id="SVGID_60_" gradientUnits="userSpaceOnUse" x1="98.888" y1="111.7576" x2="284.4807" y2="111.7576">
		<stop  offset="0" style="stop-color:#FF85F4"/>
		<stop  offset="0.6066" style="stop-color:#2B3990"/>
		<stop  offset="1" style="stop-color:#00BAD8"/>
	</linearGradient>
	<polygon class="st59" points="100.97,65.07 176.55,65.07 228.85,110.88 281.15,156.69 236.1,133.78 191.06,110.88 	"/>
</g>
<g>
	<g>
		<linearGradient id="SVGID_61_" gradientUnits="userSpaceOnUse" x1="744.5957" y1="146.6494" x2="1282.3457" y2="146.6494">
			<stop  offset="0" style="stop-color:#FF6CF8"/>
			<stop  offset="0.6472" style="stop-color:#4783FC"/>
			<stop  offset="0.7306" style="stop-color:#359DFD"/>
			<stop  offset="0.8167" style="stop-color:#28B0FE"/>
			<stop  offset="0.9055" style="stop-color:#20BBFF"/>
			<stop  offset="1" style="stop-color:#1DBFFF"/>
		</linearGradient>
		<path class="st60" d="M784.49,109.84c0.83-1.6,2.28-2.38,4.47-2.38h17.82c2.12,0,3.56,0.77,4.4,2.38l39.74,74.11
			c0.23,0.5,0.38,0.83,0.38,1.11c0,0.83-0.83,1.22-2.43,1.22h-21.69c-2.2,0-3.64-0.77-4.32-2.32l-5.08-10.39h-39.74l-4.93,10.39
			c-0.68,1.55-2.12,2.32-4.4,2.32h-21.69c-1.59,0-2.43-0.39-2.43-1.22c0-0.28,0.15-0.61,0.38-1.11L784.49,109.84z M786.23,156.49
			h23.21l-11.75-24.1L786.23,156.49z"/>
		<linearGradient id="SVGID_62_" gradientUnits="userSpaceOnUse" x1="744.5957" y1="146.6494" x2="1282.3457" y2="146.6494">
			<stop  offset="0" style="stop-color:#FF6CF8"/>
			<stop  offset="0.6472" style="stop-color:#4783FC"/>
			<stop  offset="0.7306" style="stop-color:#359DFD"/>
			<stop  offset="0.8167" style="stop-color:#28B0FE"/>
			<stop  offset="0.9055" style="stop-color:#20BBFF"/>
			<stop  offset="1" style="stop-color:#1DBFFF"/>
		</linearGradient>
		<path class="st61" d="M915.53,106.31c30.87,0,55.66,18.29,55.66,40.57c0,22.49-25.18,40.51-55.66,40.51
			c-30.87,0-55.66-18.29-55.66-40.51C859.87,124.38,885.04,106.31,915.53,106.31z M915,167.93c0.15,0,0.38,0,0.53,0
			c0.15,0,0.38,0,0.53,0c15.47,0,27.45-9.67,27.15-21.06c0.3-11.44-11.68-21.06-27.15-21.06c-0.15,0-0.38,0-0.53,0
			c-0.15,0-0.38,0-0.53,0c-15.32,0-27.45,9.62-27.15,21.06C887.54,158.26,899.68,167.93,915,167.93z"/>
		<linearGradient id="SVGID_63_" gradientUnits="userSpaceOnUse" x1="744.5957" y1="146.6494" x2="1282.3457" y2="146.6494">
			<stop  offset="0" style="stop-color:#FF6CF8"/>
			<stop  offset="0.6472" style="stop-color:#4783FC"/>
			<stop  offset="0.7306" style="stop-color:#359DFD"/>
			<stop  offset="0.8167" style="stop-color:#28B0FE"/>
			<stop  offset="0.9055" style="stop-color:#20BBFF"/>
			<stop  offset="1" style="stop-color:#1DBFFF"/>
		</linearGradient>
		<path class="st62" d="M989.09,109.84c0-1.27,1.06-2.38,3.11-2.38h48.31c0.3,0,0.53,0,0.83,0c19.34,0,33.97,13.43,33.67,26.47
			c0,8.84-7.74,17.08-17.75,21.72l20.86,28.3c0.23,0.39,0.38,0.66,0.38,0.94c0,0.72-0.76,1.38-2.2,1.38h-26.24
			c-2.05,0-2.73-0.44-3.94-2.21l-17.21-23.99h-11.75v23.88c0,1.55-1.06,2.32-3.18,2.32H992.2c-2.05,0-3.11-0.77-3.11-2.32V109.84z
			 M1017.15,123.88v19.23h16.15c7.51,0,12.97-4.64,12.97-9.56c0-4.75-5.69-9.67-12.97-9.67H1017.15z"/>
		<linearGradient id="SVGID_64_" gradientUnits="userSpaceOnUse" x1="744.5957" y1="146.6494" x2="1282.3457" y2="146.6494">
			<stop  offset="0" style="stop-color:#FF6CF8"/>
			<stop  offset="0.6472" style="stop-color:#4783FC"/>
			<stop  offset="0.7306" style="stop-color:#359DFD"/>
			<stop  offset="0.8167" style="stop-color:#28B0FE"/>
			<stop  offset="0.9055" style="stop-color:#20BBFF"/>
			<stop  offset="1" style="stop-color:#1DBFFF"/>
		</linearGradient>
		<path class="st63" d="M1119.22,154.83c0,10.06,8.04,14.42,17.82,14.42c9.93,0,17.9-5.31,17.9-14.42v-44.99
			c0-1.33,1.29-2.38,3.34-2.38h21.23c2.2,0,3.56,1.05,3.56,2.38v44.71c0.15,23.77-20.4,32.99-46.03,32.94
			c-25.63,0.06-46.18-9.4-46.03-32.94v-44.71c0-1.33,1.14-2.38,2.88-2.38h22.22c2.43,0,3.11,0.83,3.11,2.38V154.83z"/>
		<linearGradient id="SVGID_65_" gradientUnits="userSpaceOnUse" x1="744.5957" y1="146.6494" x2="1282.3457" y2="146.6494">
			<stop  offset="0" style="stop-color:#FF6CF8"/>
			<stop  offset="0.6472" style="stop-color:#4783FC"/>
			<stop  offset="0.7306" style="stop-color:#359DFD"/>
			<stop  offset="0.8167" style="stop-color:#28B0FE"/>
			<stop  offset="0.9055" style="stop-color:#20BBFF"/>
			<stop  offset="1" style="stop-color:#1DBFFF"/>
		</linearGradient>
		<path class="st64" d="M1199.07,171.02c0-0.61,0.46-1.27,1.29-1.88l12.59-8.73c0.68-0.5,1.44-0.77,2.2-0.77
			c0.99,0,2.12,0.39,3.41,1.22c7.66,4.81,14.79,8.29,22.6,8.29c9.18,0,12.13-2.82,12.13-7.41c0-2.71-3.87-4.81-7.81-6.13
			c-2.05-0.61-4.4-1.27-7.21-1.99c-24.04-6.02-35.72-13.87-35.72-25.98c-0.3-12.88,16.3-22,39.44-21.83
			c12.89,0,27.68,4.37,35.26,10.33c0.99,0.83,1.52,1.66,1.52,2.38c0,0.83-0.61,1.66-1.74,2.49l-11.15,8.68
			c-0.76,0.55-1.52,0.83-2.35,0.83c-1.06,0-2.35-0.5-3.79-1.44c-4.93-3.48-10.84-5.69-17.75-5.69c-6.29,0-11.38,1.6-11.38,5.31
			c0.46,3.92,4.93,5.25,16.91,8.12c18.13,4.42,34.81,9.06,34.81,24.81c0.38,15.03-17.67,25.64-40.88,25.64
			c-15.09,0-29.96-5.58-40.27-13.43C1199.75,172.68,1199.07,171.91,1199.07,171.02z"/>
	</g>
</g>
</svg>
